<svg width="512" height="512" viewBox="0 0 512 512" fill="none" xmlns="http://www.w3.org/2000/svg">
  <rect width="512" height="512" rx="96" fill="#080B10"/>
  <rect x="40" y="40" width="432" height="432" rx="80" fill="url(#paint0_linear)"/>
  <path d="M137 181L184 342C189 359 211 362 221 347L256 292L291 347C301 362 323 359 328 342L375 181C382 157 349 145 340 169L307 276L274 219C266 205 246 205 238 219L205 276L172 169C163 145 130 157 137 181Z" fill="white"/>
  <circle cx="256" cy="256" r="190" stroke="white" stroke-opacity=".18" stroke-width="18"/>
  <defs>
    <linearGradient id="paint0_linear" x1="66" y1="70" x2="438" y2="444" gradientUnits="userSpaceOnUse">
      <stop stop-color="#5DB7FF"/>
      <stop offset=".55" stop-color="#536DFE"/>
      <stop offset="1" stop-color="#18D2B4"/>
    </linearGradient>
  </defs>
</svg>
